REM DIRINDEX 1\2,1\3,1\4,1\5
REM DIRNAME cjc100,folder01,folder02,folder03,folder04
TITLE ""
FILE "CD1Track62.mp3" MP3
  TRACK 01 AUDIO
    TITLE "0:"
    INDEX 01 00:00:00
  TRACK 02 AUDIO
    TITLE "2:cjc100_0915"
    INDEX 01 00:00:29
  TRACK 03 AUDIO
    TITLE "2:cjc100_0916"
    INDEX 01 00:01:54
  TRACK 04 AUDIO
    TITLE "0:"
    INDEX 01 00:06:63
  TRACK 05 AUDIO
    TITLE "2:cjc100_0917"
    INDEX 01 00:07:27
  TRACK 06 AUDIO
    TITLE "2:cjc100_0918"
    INDEX 01 00:08:54
  TRACK 07 AUDIO
    TITLE "0:"
    INDEX 01 00:12:61
  TRACK 08 AUDIO
    TITLE "2:cjc100_0919"
    INDEX 01 00:13:26
  TRACK 09 AUDIO
    TITLE "2:cjc100_0920"
    INDEX 01 00:14:54
  TRACK 10 AUDIO
    TITLE "0:"
    INDEX 01 00:21:51
  TRACK 11 AUDIO
    TITLE "2:cjc100_0921"
    INDEX 01 00:22:27
  TRACK 12 AUDIO
    TITLE "2:cjc100_0922"
    INDEX 01 00:23:63
  TRACK 13 AUDIO
    TITLE "0:"
    INDEX 01 00:30:28
  TRACK 14 AUDIO
    TITLE "2:cjc100_0923"
    INDEX 01 00:30:65
  TRACK 15 AUDIO
    TITLE "2:cjc100_0924"
    INDEX 01 00:32:13
  TRACK 16 AUDIO
    TITLE "0:"
    INDEX 01 00:41:20
  TRACK 17 AUDIO
    TITLE "2:cjc100_0925"
    INDEX 01 00:41:63
  TRACK 18 AUDIO
    TITLE "2:cjc100_0926"
    INDEX 01 00:43:11
  TRACK 19 AUDIO
    TITLE "0:"
    INDEX 01 00:47:48
  TRACK 20 AUDIO
    TITLE "2:cjc100_0927"
    INDEX 01 00:48:06
  TRACK 21 AUDIO
    TITLE "2:cjc100_0928"
    INDEX 01 00:49:27
  TRACK 22 AUDIO
    TITLE "0:"
    INDEX 01 00:57:11
  TRACK 23 AUDIO
    TITLE "2:cjc100_0929"
    INDEX 01 00:57:54
  TRACK 24 AUDIO
    TITLE "2:cjc100_0930"
    INDEX 01 00:59:39
  TRACK 25 AUDIO
    TITLE "0:"
    INDEX 01 01:09:10
  TRACK 26 AUDIO
    TITLE "2:cjc100_0931"
    INDEX 01 01:09:50
  TRACK 27 AUDIO
    TITLE "2:cjc100_0932"
    INDEX 01 01:11:15
  TRACK 28 AUDIO
    TITLE "0:"
    INDEX 01 01:18:41
  TRACK 29 AUDIO
    TITLE "2:cjc100_0933"
    INDEX 01 01:19:03
  TRACK 30 AUDIO
    TITLE "2:cjc100_0934"
    INDEX 01 01:20:51
  TRACK 31 AUDIO
    TITLE "0:"
    INDEX 01 01:28:06
  TRACK 32 AUDIO
    TITLE "2:cjc100_0935"
    INDEX 01 01:28:43
  TRACK 33 AUDIO
    TITLE "2:cjc100_0936"
    INDEX 01 01:30:18
  TRACK 34 AUDIO
    TITLE "0:"
    INDEX 01 01:35:20
  TRACK 35 AUDIO
    TITLE "2:cjc100_0937"
    INDEX 01 01:35:65
  TRACK 36 AUDIO
    TITLE "2:cjc100_0938"
    INDEX 01 01:37:54
  TRACK 37 AUDIO
    TITLE "0:"
    INDEX 01 01:44:01
  TRACK 38 AUDIO
    TITLE "2:cjc100_0939"
    INDEX 01 01:44:42
  TRACK 39 AUDIO
    TITLE "2:cjc100_0940"
    INDEX 01 01:46:00
  TRACK 40 AUDIO
    TITLE "0:"
    INDEX 01 01:52:14
  TRACK 41 AUDIO
    TITLE "2:cjc100_0941"
    INDEX 01 01:52:59
  TRACK 42 AUDIO
    TITLE "2:cjc100_0942"
    INDEX 01 01:54:05
  TRACK 43 AUDIO
    TITLE "0:"
    INDEX 01 02:00:74
  TRACK 44 AUDIO
    TITLE "2:cjc100_0943"
    INDEX 01 02:01:48
  TRACK 45 AUDIO
    TITLE "2:cjc100_0944"
    INDEX 01 02:02:60
  TRACK 46 AUDIO
    TITLE "0:"
    INDEX 01 02:06:61
  TRACK 47 AUDIO
    TITLE "2:cjc100_0945"
    INDEX 01 02:07:24
  TRACK 48 AUDIO
    TITLE "2:cjc100_0946"
    INDEX 01 02:08:54
  TRACK 49 AUDIO
    TITLE "0:"
    INDEX 01 02:15:11
  TRACK 50 AUDIO
    TITLE "2:cjc100_0947"
    INDEX 01 02:15:51
  TRACK 51 AUDIO
    TITLE "2:cjc100_0948"
    INDEX 01 02:17:08
  TRACK 52 AUDIO
    TITLE "0:"
    INDEX 01 02:21:20
  TRACK 53 AUDIO
    TITLE "2:cjc100_0949"
    INDEX 01 02:21:67
  TRACK 54 AUDIO
    TITLE "2:cjc100_0950"
    INDEX 01 02:23:38
  TRACK 55 AUDIO
    TITLE "0:"
    INDEX 01 02:33:07
  TRACK 56 AUDIO
    TITLE "2:cjc100_0951"
    INDEX 01 02:33:43
  TRACK 57 AUDIO
    TITLE "2:cjc100_0952"
    INDEX 01 02:34:50
  TRACK 58 AUDIO
    TITLE "0:"
    INDEX 01 02:43:51
  TRACK 59 AUDIO
    TITLE "2:cjc100_0953"
    INDEX 01 02:44:27
  TRACK 60 AUDIO
    TITLE "2:cjc100_0954"
    INDEX 01 02:45:73
  TRACK 61 AUDIO
    TITLE "0:"
    INDEX 01 02:53:24
  TRACK 62 AUDIO
    TITLE "2:cjc100_0955"
    INDEX 01 02:54:04
  TRACK 63 AUDIO
    TITLE "2:cjc100_0956"
    INDEX 01 02:55:32
  TRACK 64 AUDIO
    TITLE "0:"
    INDEX 01 03:03:65
  TRACK 65 AUDIO
    TITLE "2:cjc100_0957"
    INDEX 01 03:04:37
  TRACK 66 AUDIO
    TITLE "2:cjc100_0958"
    INDEX 01 03:05:56
  TRACK 67 AUDIO
    TITLE "0:"
    INDEX 01 03:13:34
  TRACK 68 AUDIO
    TITLE "2:cjc100_0959"
    INDEX 01 03:14:14
  TRACK 69 AUDIO
    TITLE "2:cjc100_0960"
    INDEX 01 03:15:37
  TRACK 70 AUDIO
    TITLE "0:"
    INDEX 01 03:23:27
  TRACK 71 AUDIO
    TITLE "2:cjc100_0961"
    INDEX 01 03:24:05
  TRACK 72 AUDIO
    TITLE "2:cjc100_0962"
    INDEX 01 03:25:26
  TRACK 73 AUDIO
    TITLE "0:"
    INDEX 01 03:31:30
  TRACK 74 AUDIO
    TITLE "2:cjc100_0963"
    INDEX 01 03:32:00
  TRACK 75 AUDIO
    TITLE "2:cjc100_0964"
    INDEX 01 03:33:11
  TRACK 76 AUDIO
    TITLE "0:"
    INDEX 01 03:42:26
  TRACK 77 AUDIO
    TITLE "2:cjc100_0965"
    INDEX 01 03:42:67
  TRACK 78 AUDIO
    TITLE "2:cjc100_0966"
    INDEX 01 03:44:21
  TRACK 79 AUDIO
    TITLE "0:"
    INDEX 01 03:48:54
  TRACK 80 AUDIO
    TITLE "2:cjc100_0967"
    INDEX 01 03:49:22
  TRACK 81 AUDIO
    TITLE "2:cjc100_0968"
    INDEX 01 03:51:03
  TRACK 82 AUDIO
    TITLE "0:"
    INDEX 01 03:57:22
  TRACK 83 AUDIO
    TITLE "2:cjc100_0969"
    INDEX 01 03:57:65
  TRACK 84 AUDIO
    TITLE "2:cjc100_0970"
    INDEX 01 03:59:21
  TRACK 85 AUDIO
    TITLE "0:"
    INDEX 01 04:06:09
  TRACK 86 AUDIO
    TITLE "2:cjc100_0971"
    INDEX 01 04:06:56
  TRACK 87 AUDIO
    TITLE "2:cjc100_0972"
    INDEX 01 04:07:65
  TRACK 88 AUDIO
    TITLE "0:"
    INDEX 01 04:15:06
  TRACK 89 AUDIO
    TITLE "2:cjc100_0973"
    INDEX 01 04:15:41
  TRACK 90 AUDIO
    TITLE "2:cjc100_0974"
    INDEX 01 04:17:09
  TRACK 91 AUDIO
    TITLE "0:"
    INDEX 01 04:23:66
  TRACK 92 AUDIO
    TITLE "2:cjc100_0975"
    INDEX 01 04:24:32
  TRACK 93 AUDIO
    TITLE "2:cjc100_0976"
    INDEX 01 04:25:65
  TRACK 94 AUDIO
    TITLE "0:"
    INDEX 01 04:35:09
  TRACK 95 AUDIO
    TITLE "2:cjc100_0977"
    INDEX 01 04:35:50
  TRACK 96 AUDIO
    TITLE "2:cjc100_0978"
    INDEX 01 04:37:25
  TRACK 97 AUDIO
    TITLE "0:"
    INDEX 01 04:44:45
  TRACK 98 AUDIO
    TITLE "2:cjc100_0979"
    INDEX 01 04:45:09
  TRACK 99 AUDIO
    TITLE "2:cjc100_0980"
    INDEX 01 04:46:44
  TRACK 100 AUDIO
    TITLE "0:"
    INDEX 01 04:53:40
  TRACK 101 AUDIO
    TITLE "2:cjc100_0981"
    INDEX 01 04:54:08
  TRACK 102 AUDIO
    TITLE "2:cjc100_0982"
    INDEX 01 04:55:62
  TRACK 103 AUDIO
    TITLE "0:"
    INDEX 01 05:00:60
  TRACK 104 AUDIO
    TITLE "2:cjc100_0983"
    INDEX 01 05:01:32
  TRACK 105 AUDIO
    TITLE "2:cjc100_0984"
    INDEX 01 05:02:37
  TRACK 106 AUDIO
    TITLE "0:"
    INDEX 01 05:07:44
  TRACK 107 AUDIO
    TITLE "2:cjc100_0985"
    INDEX 01 05:08:20
  TRACK 108 AUDIO
    TITLE "2:cjc100_0986"
    INDEX 01 05:09:37
  TRACK 109 AUDIO
    TITLE "0:"
    INDEX 01 05:16:06
  TRACK 110 AUDIO
    TITLE "2:cjc100_0987"
    INDEX 01 05:16:60
  TRACK 111 AUDIO
    TITLE "2:cjc100_0988"
    INDEX 01 05:18:16
  TRACK 112 AUDIO
    TITLE "0:"
    INDEX 01 05:25:01
  TRACK 113 AUDIO
    TITLE "2:cjc100_0989"
    INDEX 01 05:25:44
  TRACK 114 AUDIO
    TITLE "2:cjc100_0990"
    INDEX 01 05:26:69
  TRACK 115 AUDIO
    TITLE "0:"
    INDEX 01 05:32:01
  TRACK 116 AUDIO
    TITLE "2:cjc100_0991"
    INDEX 01 05:32:46
  TRACK 117 AUDIO
    TITLE "2:cjc100_0992"
    INDEX 01 05:33:45
  TRACK 118 AUDIO
    TITLE "0:"
    INDEX 01 05:37:61
  TRACK 119 AUDIO
    TITLE "2:cjc100_0993"
    INDEX 01 05:38:25
  TRACK 120 AUDIO
    TITLE "2:cjc100_0994"
    INDEX 01 05:39:44
  TRACK 121 AUDIO
    TITLE "0:"
    INDEX 01 05:44:72
  TRACK 122 AUDIO
    TITLE "2:cjc100_0995"
    INDEX 01 05:45:50
  TRACK 123 AUDIO
    TITLE "2:cjc100_0996"
    INDEX 01 05:46:62
  TRACK 124 AUDIO
    TITLE "0:"
    INDEX 01 05:50:10
  TRACK 125 AUDIO
    TITLE "2:cjc100_0997"
    INDEX 01 05:50:61
  TRACK 126 AUDIO
    TITLE "2:cjc100_0998"
    INDEX 01 05:52:21
  TRACK 127 AUDIO
    TITLE "0:"
    INDEX 01 05:57:26
  TRACK 128 AUDIO
    TITLE "2:cjc100_0999"
    INDEX 01 05:57:67
  TRACK 129 AUDIO
    TITLE "2:cjc100_1000"
    INDEX 01 05:59:03
  TRACK 130 AUDIO
    TITLE "0:"
    INDEX 01 06:05:16
  TRACK 131 AUDIO
    TITLE "2:cjc100_1001"
    INDEX 01 06:05:73
  TRACK 132 AUDIO
    TITLE "2:cjc100_1002"
    INDEX 01 06:07:27
  TRACK 133 AUDIO
    TITLE "0:"
    INDEX 01 06:11:50
